<svg xmlns="http://www.w3.org/2000/svg" width="1308" height="1162" viewBox="0 0 1308 1162">
  <defs>
    <style>
      .cls-1 {
        fill: #f7931e;
      }

      .cls-2 {
        fill: none;
      }

      .cls-3 {
        fill: #fff;
        stroke: #000;
        stroke-miterlimit: 10;
        stroke-width: 10px;
      }
    </style>
  </defs>
  <g id="Layer_2" data-name="Layer 2">
    <path d="M1140.4648,331.4219a9.9573,9.9573,0,0,0-.6926-3.6376,20.7685,20.7685,0,1,0-20.6951,22.4042c.2317,0,.4563-.0272.6863-.0347-4.3017,56.8466-27.7331,94.9053-48.6462,128.8638-18.3789,29.8447-35.7393,58.0342-35.1,92.5342a9.9989,9.9989,0,0,0,9.9941,9.8144c.0635,0,.126-.001.1895-.0019a10,10,0,0,0,9.8125-10.1836c-.53-28.6358,14.6064-53.2149,32.1338-81.6758C1111.4561,451.6562,1140.4648,404.5518,1140.4648,331.4219Z"/>
    <rect class="cls-1" x="269.25" y="205" width="766" height="673" rx="94.4351"/>
    <g>
      <path class="cls-2" d="M363.6851,210h577.13a89.4351,89.4351,0,0,1,89.4351,89.4351V783.5645A89.4355,89.4355,0,0,1,940.8145,873H363.6855A89.4355,89.4355,0,0,1,274.25,783.5645V299.4351A89.4351,89.4351,0,0,1,363.6851,210Z"/>
      <path d="M940.8145,200H918.75V150a15,15,0,0,0-30,0v50h-70.6V150a15,15,0,0,0-30,0v50H717.55V150a15,15,0,0,0-30,0v50h-70.6V150a15,15,0,0,0-30,0v50h-70.6V150a15,15,0,0,0-30,0v50h-70.6V150a15,15,0,0,0-30,0v50H363.6851A99.5477,99.5477,0,0,0,264.25,299.4351V783.5645A99.5478,99.5478,0,0,0,363.6851,883H586.05v36c0,48.167-22.083,50.8594-24.6006,51.0078A3.5465,3.5465,0,0,1,561.85,970v.0429c-.283-.0159-.5631-.0429-.85-.0429a15,15,0,0,0,0,30c.287,0,.5671-.027.85-.0429V1000c1.5635,0,15.6655-.33,29.26-11.7744C607.6587,974.2939,616.05,951.0029,616.05,919V883h74.9v36c0,32.0781,8.6074,55.4092,25.583,69.3438a51.5729,51.5729,0,0,0,25.191,11.2864A15.0144,15.0144,0,0,0,745,1000c.1227,0,.2415-.0154.3635-.0184.3693.0152.6365.0184.7869.0184v-.0581a14.985,14.985,0,0,0,0-29.8838V970s.1279-.0059.3682.0059C743.9014,969.8652,720.95,967.2383,720.95,919V883H940.8145a99.5479,99.5479,0,0,0,99.4355-99.4355V299.4351A99.5478,99.5478,0,0,0,940.8145,200ZM1030.25,783.5645A89.5374,89.5374,0,0,1,940.8145,873H363.6851A89.537,89.537,0,0,1,274.25,783.5645V299.4351A89.5366,89.5366,0,0,1,363.6851,210H940.8145a89.537,89.537,0,0,1,89.4355,89.4351Z"/>
    </g>
    <rect class="cls-3" x="336.0541" y="261" width="632.3919" height="557" rx="59.5797"/>
    <g>
      <path d="M541.9711,465.35a25.4159,25.4159,0,0,1-16.6775-44.6,71.4787,71.4787,0,0,0-101.2931,92.1791h128.832a71.7172,71.7172,0,0,0,3.8162-52.2506A25.2964,25.2964,0,0,1,541.9711,465.35Z"/>
      <path d="M877.2554,454.3229a25.4211,25.4211,0,1,1-34.402-36.5,71.4794,71.4794,0,0,0-95.9242,95.1059h128.832a71.63,71.63,0,0,0,1.4942-58.6058Z"/>
      <path d="M654.647,603.104q-.9251,0-1.857-.0269c-10.2563-.2968-24.9492-2.6709-36.7-12.2949-11.7456-9.62-17.7783-24.0268-17.9306-42.82a5,5,0,0,1,10-.0811c.3091,38.2056,28.2763,44.7183,44.92,45.2,12.3477.3564,23.3857-3.503,31.1084-10.8682,8.292-7.9077,12.6357-19.4761,12.9121-34.3833a5.0005,5.0005,0,0,1,4.9971-4.9077c.0312,0,.0625,0,.0947.001a5,5,0,0,1,4.9063,5.0913c-.3223,17.4272-5.8584,31.7553-16.0088,41.435C681.8184,598.2905,668.9346,603.104,654.647,603.104Z"/>
    </g>
    <path d="M265.8545,514.6338a10,10,0,1,0-20,0c0,67.4653-26.2168,110.0361-49.3472,147.5957-18.3794,29.8447-35.74,58.0342-35.1011,92.5342a9.9608,9.9608,0,0,0,.6734,3.4005,20.7671,20.7671,0,1,0,21.1453-22.33c4.49-21.1811,16.676-40.9748,30.3117-63.1163C236.8457,634.8682,265.8545,587.7637,265.8545,514.6338Z"/>
  </g>
</svg>
