<svg xmlns="http://www.w3.org/2000/svg" width="1308" height="1162" viewBox="0 0 1308 1162">
  <defs>
    <style>
      .cls-1 {
        fill: #ccc;
      }

      .cls-2 {
        fill: #f7931e;
      }

      .cls-3 {
        fill: none;
      }

      .cls-4 {
        fill: #fff;
        stroke: #000;
        stroke-miterlimit: 10;
        stroke-width: 10px;
      }
    </style>
  </defs>
  <g id="Layer_1" data-name="Layer 1">
    <g>
      <path class="cls-1" d="M943.7461,1132.6631q-7.5132,0-11.2441-3.4522-3.7324-3.4511-3.7315-10.3564v-13.8076q0-7.0064,3.7568-10.51,3.7559-3.501,11.27-3.5019,7.5643,0,11.0674,3.35,3.5024,3.3514,3.8584,10.915l-7.6153.5078q-.3545-5.127-1.9043-6.9043-1.5483-1.7767-5.457-1.7763-4.0107,0-5.6856,1.9287t-1.6757,6.498v12.793q0,4.4692,1.6757,6.3467t5.6856,1.8769q3.9083,0,5.4316-1.75,1.5236-1.752,1.93-6.7265l7.6153.5068q-.356,7.4136-3.8838,10.7373T943.7461,1132.6631Z"/>
      <path class="cls-1" d="M965.3213,1132.1553v-5.8379h9.6455v-18.7842h-9.6455v-5.8379H982.582v24.6221h9.6455v5.8379Zm13.7578-35.5362a8.7065,8.7065,0,0,1-3.9346-.7617,2.7134,2.7134,0,0,1-1.498-2.64v-.5586a2.8116,2.8116,0,0,1,1.498-2.7158,10.2266,10.2266,0,0,1,7.8692,0,2.8116,2.8116,0,0,1,1.498,2.7158v.5586a2.7052,2.7052,0,0,1-1.5234,2.64A8.7386,8.7386,0,0,1,979.0791,1096.6191Z"/>
      <path class="cls-1" d="M1002.38,1132.1553v-30.46h7.6152v5.33h1.5225a8.2853,8.2853,0,0,1,3.4277-4.4414,10.4535,10.4535,0,0,1,5.5078-1.3965,7.6622,7.6622,0,0,1,5.8125,2.26,8.8582,8.8582,0,0,1,2.1573,6.3711v5.1269h-7.0049v-2.792a5.3382,5.3382,0,0,0-1.041-3.5537,4.2172,4.2172,0,0,0-3.377-1.2187,7.8359,7.8359,0,0,0-3.832.99,8.7746,8.7746,0,0,0-3.1729,3.2246v20.56Z"/>
      <path class="cls-1" d="M1050.4551,1132.6631q-7.0048,0-10.6612-3.0205-3.6547-3.0205-3.6552-8.7578v-7.919q0-5.7363,3.6552-8.7568t10.61-3.0215q6.4454,0,9.6709,2.8437a12.0457,12.0457,0,0,1,3.7822,8.1221l-7.3613.5586a6.1425,6.1425,0,0,0-1.7012-4.3662,6.8034,6.8034,0,0,0-4.5937-1.32q-3.3516,0-4.8985,1.4726-1.55,1.4737-1.5488,4.8233v7.31q0,3.25,1.5742,4.7216,1.5719,1.4723,4.9746,1.4717a7.5933,7.5933,0,0,0,4.5176-1.0908,4.6659,4.6659,0,0,0,1.6758-3.5791l7.3613.5586a10.1117,10.1117,0,0,1-3.4267,7.3867Q1057.3589,1132.6631,1050.4551,1132.6631Z"/>
      <path class="cls-1" d="M1080.8633,1132.6631a8.9111,8.9111,0,0,1-6.5742-2.6143,9.7029,9.7029,0,0,1-2.6143-7.1836v-21.17h7.6143v19.24a6.3042,6.3042,0,0,0,1.1425,4.1124,4.1434,4.1434,0,0,0,3.376,1.371,7.022,7.022,0,0,0,3.8838-1.2441,16.7415,16.7415,0,0,0,3.7813-3.5791v-19.9h7.6152v30.46h-7.6152v-5.3311H1089.95a8.772,8.772,0,0,1-3.8076,4.3672A10.5748,10.5748,0,0,1,1080.8633,1132.6631Z"/>
      <path class="cls-1" d="M1107.4639,1132.1553v-5.8379h9.6455v-18.7842h-9.6455v-5.8379h17.2607v24.6221h9.6455v5.8379Zm13.7578-35.5362a8.7065,8.7065,0,0,1-3.9346-.7617,2.7134,2.7134,0,0,1-1.498-2.64v-.5586a2.8116,2.8116,0,0,1,1.498-2.7158,10.2264,10.2264,0,0,1,7.8691,0,2.8115,2.8115,0,0,1,1.4981,2.7158v.5586a2.7052,2.7052,0,0,1-1.5234,2.64A8.7389,8.7389,0,0,1,1121.2217,1096.6191Z"/>
      <path class="cls-1" d="M1161.7832,1132.6631q-5.6865,0-8.8086-2.69t-3.1221-7.92v-14.5195h-7.8681v-5.8379h7.8681V1091.543h7.6143v10.1523h12.1846v5.8379h-12.1846v13.5547a5.7221,5.7221,0,0,0,1.3711,4.2392,5.2715,5.2715,0,0,0,3.8584,1.3448,23.098,23.098,0,0,0,3.1982-.2276,16.3059,16.3059,0,0,0,3.1983-.7871l1.0156,5.7871a19.4762,19.4762,0,0,1-3.5283.8633A29.7312,29.7312,0,0,1,1161.7832,1132.6631Z"/>
      <path class="cls-1" d="M1185.6426,1132.1553h-7.6153V1091.543h16.042q6.5992,0,9.7471,2.7715t3.1475,8.2138v3.4072a11.53,11.53,0,0,1-2.1065,7.2481,10.0417,10.0417,0,0,1-6.32,3.5352l9.3906,15.4365h-8.1728l-9.0869-14.9248h-5.0254Zm0-21.0166h7.6142q3.5025,0,4.9248-1.1934t1.4209-4.1885v-2.9443q0-2.8418-1.4209-4.0107t-4.9248-1.167h-7.6142Z"/>
      <path class="cls-1" d="M1241.6367,1125.2a11.0479,11.0479,0,0,1-4.6963,5.7881q-3.02,1.6743-9.2646,1.6748-6.1934,0-10.0264-2.919t-3.833-8.707v-8.1221q0-5.685,3.7315-8.706t10.0263-3.0215q6.3457,0,10.001,3.0469,3.6547,3.0453,3.6553,8.8838v5.33h-19.7989v2.9444a5.9487,5.9487,0,0,0,1.5235,4.4678q1.5219,1.4721,4.8222,1.4716a9.8956,9.8956,0,0,0,4.543-.8632,6.4446,6.4446,0,0,0,2.7168-3.0958Zm-20.2051-12.793v1.5733h12.1836v-1.1162q0-3.5025-1.4218-5.001t-4.67-1.4971q-3.249,0-4.67,1.4209Q1221.4312,1109.21,1221.4316,1112.4072Z"/>
      <path class="cls-1" d="M1277.1719,1125.2a11.0465,11.0465,0,0,1-4.6953,5.7881q-3.0205,1.6743-9.2657,1.6748-6.1934,0-10.0254-2.919-3.8349-2.9179-3.833-8.707v-8.1221q0-5.685,3.7315-8.706t10.0254-3.0215q6.3456,0,10.0019,3.0469,3.6534,3.0453,3.6543,8.8838v5.33h-19.7988v2.9444a5.9487,5.9487,0,0,0,1.5234,4.4678q1.5236,1.4721,4.8223,1.4716a9.9023,9.9023,0,0,0,4.5439-.8632,6.4432,6.4432,0,0,0,2.7159-3.0958Zm-20.2051-12.793v1.5733H1269.15v-1.1162q0-3.5025-1.4209-5.001-1.4225-1.4972-4.6709-1.4971t-4.67,1.4209Q1256.9677,1109.21,1256.9668,1112.4072Z"/>
    </g>
  </g>
  <g id="Layer_2" data-name="Layer 2">
    <rect class="cls-2" x="269.25" y="205" width="766" height="673" rx="94.4351"/>
    <g>
      <path class="cls-3" d="M363.6851,210h577.13a89.4351,89.4351,0,0,1,89.4351,89.4351V783.5645A89.4355,89.4355,0,0,1,940.8145,873H363.6855A89.4355,89.4355,0,0,1,274.25,783.5645V299.4351A89.4351,89.4351,0,0,1,363.6851,210Z"/>
      <path d="M940.8145,200H918.75V150a15,15,0,0,0-30,0v50h-70.6V150a15,15,0,0,0-30,0v50H717.55V150a15,15,0,0,0-30,0v50h-70.6V150a15,15,0,0,0-30,0v50h-70.6V150a15,15,0,0,0-30,0v50h-70.6V150a15,15,0,0,0-30,0v50H363.6851A99.5477,99.5477,0,0,0,264.25,299.4351V783.5645A99.5478,99.5478,0,0,0,363.6851,883H586.05v36c0,48.167-22.083,50.8594-24.6006,51.0078A3.5465,3.5465,0,0,1,561.85,970v.0429c-.283-.0159-.5631-.0429-.85-.0429a15,15,0,0,0,0,30c.287,0,.5671-.027.85-.0429V1000c1.5635,0,15.6655-.33,29.26-11.7744C607.6587,974.2939,616.05,951.0029,616.05,919V883h74.9v36c0,32.0781,8.6074,55.4092,25.583,69.3438a51.5729,51.5729,0,0,0,25.191,11.2864A15.0144,15.0144,0,0,0,745,1000c.1227,0,.2415-.0154.3635-.0184.3693.0152.6365.0184.7869.0184v-.0581a14.985,14.985,0,0,0,0-29.8838V970s.1279-.0059.3682.0059C743.9014,969.8652,720.95,967.2383,720.95,919V883H940.8145a99.5479,99.5479,0,0,0,99.4355-99.4355V299.4351A99.5478,99.5478,0,0,0,940.8145,200ZM1030.25,783.5645A89.5374,89.5374,0,0,1,940.8145,873H363.6851A89.537,89.537,0,0,1,274.25,783.5645V299.4351A89.5366,89.5366,0,0,1,363.6851,210H940.8145a89.537,89.537,0,0,1,89.4355,89.4351Z"/>
    </g>
    <rect class="cls-4" x="336.0541" y="261" width="632.3919" height="557" rx="59.5797"/>
    <g>
      <path d="M541.9711,465.35a25.4159,25.4159,0,0,1-16.6775-44.6,71.4787,71.4787,0,0,0-101.2931,92.1791h128.832a71.7172,71.7172,0,0,0,3.8162-52.2506A25.2964,25.2964,0,0,1,541.9711,465.35Z"/>
      <path d="M877.2554,454.3229a25.4211,25.4211,0,1,1-34.402-36.5,71.4794,71.4794,0,0,0-95.9242,95.1059h128.832a71.63,71.63,0,0,0,1.4942-58.6058Z"/>
      <path d="M654.647,603.104q-.9251,0-1.857-.0269c-10.2563-.2968-24.9492-2.6709-36.7-12.2949-11.7456-9.62-17.7783-24.0268-17.9306-42.82a5,5,0,0,1,10-.0811c.3091,38.2056,28.2763,44.7183,44.92,45.2,12.3477.3564,23.3857-3.503,31.1084-10.8682,8.292-7.9077,12.6357-19.4761,12.9121-34.3833a5.0005,5.0005,0,0,1,4.9971-4.9077c.0312,0,.0625,0,.0947.001a5,5,0,0,1,4.9063,5.0913c-.3223,17.4272-5.8584,31.7553-16.0088,41.435C681.8184,598.2905,668.9346,603.104,654.647,603.104Z"/>
    </g>
    <path d="M265.8545,514.6338a10,10,0,1,0-20,0c0,67.4653-26.2168,110.0361-49.3472,147.5957-18.3794,29.8447-35.74,58.0342-35.1011,92.5342a9.9608,9.9608,0,0,0,.6734,3.4005,20.7671,20.7671,0,1,0,21.1453-22.33c4.49-21.1811,16.676-40.9748,30.3117-63.1163C236.8457,634.8682,265.8545,587.7637,265.8545,514.6338Z"/>
    <path d="M1105.3477,662.23C1082.2168,624.67,1056,582.0991,1056,514.6338a10,10,0,0,0-20,0c0,73.13,29.0088,120.2344,52.3174,158.083,13.6362,22.1424,25.8219,41.9358,30.3122,63.1173a20.7683,20.7683,0,1,0,21.1453,22.3286,9.9549,9.9549,0,0,0,.6724-3.399C1141.0869,720.2637,1123.7266,692.0742,1105.3477,662.23Z"/>
  </g>
</svg>
