<svg id="Layer_1" data-name="Layer 1" xmlns="http://www.w3.org/2000/svg" width="1308" height="1162" viewBox="0 0 1308 1162">
  <defs>
    <style>
      .cls-1 {
        fill: #f7931e;
      }

      .cls-2 {
        fill: none;
      }

      .cls-3 {
        fill: #fff;
        stroke: #000;
        stroke-miterlimit: 10;
        stroke-width: 10px;
      }
    </style>
  </defs>
  <rect class="cls-1" x="269.25" y="205" width="766" height="673" rx="94.4351"/>
  <g>
    <path class="cls-2" d="M363.6851,210h577.13a89.4351,89.4351,0,0,1,89.4351,89.4351V783.5645A89.4355,89.4355,0,0,1,940.8145,873H363.6855A89.4355,89.4355,0,0,1,274.25,783.5645V299.4351A89.4351,89.4351,0,0,1,363.6851,210Z"/>
    <path d="M940.8145,200H918.75V150a15,15,0,0,0-30,0v50h-70.6V150a15,15,0,0,0-30,0v50H717.55V150a15,15,0,0,0-30,0v50h-70.6V150a15,15,0,0,0-30,0v50h-70.6V150a15,15,0,0,0-30,0v50h-70.6V150a15,15,0,0,0-30,0v50H363.6851A99.5477,99.5477,0,0,0,264.25,299.4351V783.5645A99.5478,99.5478,0,0,0,363.6851,883H586.05v36c0,48.167-22.083,50.8594-24.6006,51.0078A3.5465,3.5465,0,0,1,561.85,970v.0429c-.283-.0159-.5631-.0429-.85-.0429a15,15,0,0,0,0,30c.287,0,.5671-.027.85-.0429V1000c1.5635,0,15.6655-.33,29.26-11.7744C607.6587,974.2939,616.05,951.0029,616.05,919V883h74.9v36c0,32.0781,8.6074,55.4092,25.583,69.3438a51.5729,51.5729,0,0,0,25.191,11.2864A15.0144,15.0144,0,0,0,745,1000c.1227,0,.2415-.0154.3635-.0184.3693.0152.6365.0184.7869.0184v-.0581a14.985,14.985,0,0,0,0-29.8838V970s.1279-.0059.3682.0059C743.9014,969.8652,720.95,967.2383,720.95,919V883H940.8145a99.5479,99.5479,0,0,0,99.4355-99.4355V299.4351A99.5478,99.5478,0,0,0,940.8145,200ZM1030.25,783.5645A89.5374,89.5374,0,0,1,940.8145,873H363.6851A89.537,89.537,0,0,1,274.25,783.5645V299.4351A89.5366,89.5366,0,0,1,363.6851,210H940.8145a89.537,89.537,0,0,1,89.4355,89.4351Z"/>
  </g>
  <rect class="cls-3" x="336.0541" y="261" width="632.3919" height="557" rx="59.5797"/>
  <path d="M265.8545,514.6338a10,10,0,1,0-20,0c0,67.4653-26.2168,110.0361-49.3472,147.5957-18.3794,29.8447-35.74,58.0342-35.1011,92.5342a9.9608,9.9608,0,0,0,.6734,3.4005,20.7671,20.7671,0,1,0,21.1453-22.33c4.49-21.1811,16.676-40.9748,30.3117-63.1163C236.8457,634.8682,265.8545,587.7637,265.8545,514.6338Z"/>
  <path d="M1105.3477,662.23C1082.2168,624.67,1056,582.0991,1056,514.6338a10,10,0,0,0-20,0c0,73.13,29.0088,120.2344,52.3174,158.083,13.6362,22.1424,25.8219,41.9358,30.3122,63.1173a20.7683,20.7683,0,1,0,21.1453,22.3286,9.9549,9.9549,0,0,0,.6724-3.399C1141.0869,720.2637,1123.7266,692.0742,1105.3477,662.23Z"/>
  <g>
    <path d="M488.4165,410.5056a71.4531,71.4531,0,0,0-45.6526,126.4231h91.3049a71.453,71.453,0,0,0-45.6523-126.4231ZM521.9712,505.35a25.4221,25.4221,0,1,1,25.4219-25.4221A25.4221,25.4221,0,0,1,521.9712,505.35Z"/>
    <path d="M811.3452,410.5056a71.453,71.453,0,0,0-45.6523,126.4231h91.3047a71.453,71.453,0,0,0-45.6524-126.4231ZM778.0288,504.35a25.4221,25.4221,0,1,1,25.4221-25.4221A25.4221,25.4221,0,0,1,778.0288,504.35Z"/>
    <path d="M658.8809,610h-18a36.5,36.5,0,0,1,0-73h18a36.5,36.5,0,1,1,0,73Zm-18-63a26.5,26.5,0,0,0,0,53h18a26.5,26.5,0,1,0,0-53Z"/>
  </g>
</svg>
